<svg xmlns="http://www.w3.org/2000/svg" width="512" height="512" viewBox="0 0 512 512" version="1.1">
	<path d="M 167.411 66.964 C 165.432 67.772, 165.288 68.802, 164.664 86.658 C 164.302 97.021, 164.004 111.393, 164.003 118.595 C 164 130.009, 163.765 131.902, 162.171 133.345 C 160.621 134.748, 157.763 135, 143.415 135 C 134.104 135, 124.961 135.438, 123.095 135.973 C 118.138 137.394, 113.531 140.871, 110.588 145.409 L 108 149.400 108 271.732 C 108 372.483, 108.239 394.632, 109.357 397.282 C 111.206 401.667, 119.740 409.415, 124.556 411.081 C 127.807 412.205, 151.356 412.449, 258.500 412.472 C 387.477 412.500, 388.527 412.484, 391.965 410.465 C 399.307 406.151, 398.692 418.781, 399.396 257.844 L 400.029 113.188 397.395 110.058 C 392.887 104.700, 390.433 104, 376.166 104 L 363.233 104 362.709 101.256 C 362.068 97.904, 362.554 97, 365 97 C 367.774 97, 368.166 95.650, 366.836 90.678 C 365.820 86.876, 365.875 85.982, 367.209 84.648 C 369.178 82.679, 368.539 70.316, 366.348 68 C 365.108 66.689, 352.604 66.475, 267.214 66.306 C 213.472 66.199, 168.560 66.495, 167.411 66.964 M 179.250 79.659 C 178.348 80.025, 178 83.487, 178 92.083 L 178 104 245.841 104 C 283.154 104, 320.504 103.705, 328.841 103.344 C 343.652 102.703, 344 102.637, 344 100.461 C 344 98.996, 343.229 98.027, 341.750 97.630 C 340.512 97.299, 304.738 97.021, 262.250 97.014 L 185 97 185 92 L 185 87 220.750 87.022 C 277.277 87.057, 322.306 89.038, 348.406 92.638 C 353.979 93.407, 354.249 91.638, 348.739 90.463 C 346.957 90.083, 343.925 89.102, 342 88.284 C 338.849 86.944, 338.700 86.713, 340.500 85.968 C 341.600 85.513, 344.300 85.102, 346.500 85.055 C 351.832 84.941, 353.863 83.639, 352.391 81.278 C 351.344 79.599, 346.547 79.490, 265.891 79.326 C 218.926 79.230, 179.938 79.380, 179.250 79.659 M 367.703 117.631 C 367.316 118.017, 367 122.479, 367 127.547 L 367 136.760 304.750 137.478 C 270.512 137.874, 227.074 138.040, 208.221 137.848 C 179.236 137.554, 173.803 137.722, 173.046 138.937 C 172.207 140.284, 171.027 395.973, 171.847 398.755 C 172.142 399.752, 194.029 399.957, 278.859 399.755 L 385.500 399.500 385.500 258.500 L 385.500 117.500 376.953 117.214 C 372.252 117.057, 368.089 117.244, 367.703 117.631 M 130.571 157.571 C 129.312 158.830, 129 161.600, 129 171.500 C 129 187.436, 128.596 187, 143.383 187 C 158.816 187, 159 186.820, 159 171.684 C 159 155.838, 159.155 156, 144.015 156 C 134.555 156, 131.824 156.319, 130.571 157.571 M 196.228 177.750 L 196.500 196.500 203 196.500 L 209.500 196.500 209.786 180 C 209.943 170.925, 209.821 162.488, 209.516 161.250 C 209.012 159.204, 208.372 159, 202.459 159 L 195.956 159 196.228 177.750 M 239 162 L 239 165 298.418 165 C 331.098 165, 358.548 164.727, 359.418 164.393 C 360.288 164.059, 361 162.709, 361 161.393 L 361 159 300 159 L 239 159 239 162 M 240 178.008 L 240 181.016 300.250 180.758 L 360.500 180.500 360.816 177.750 L 361.133 175 300.566 175 L 240 175 240 178.008 M 240.018 192.966 C 239.407 194.107, 239.180 195.482, 239.513 196.021 C 239.897 196.642, 262.217 197, 300.625 197 L 361.133 197 360.816 194.250 L 360.500 191.500 300.814 191.195 C 241.278 190.891, 241.126 190.896, 240.018 192.966 M 131.223 211.557 C 129.150 213.008, 129 213.873, 129 224.334 C 129 240.084, 128.922 240, 143.484 240 C 154.577 240, 154.905 239.936, 156.927 237.365 C 158.721 235.084, 159 233.337, 159 224.365 C 159 210.268, 158.724 210, 144.223 210 C 136.086 210, 132.900 210.382, 131.223 211.557 M 247.750 212.739 L 240 213.084 240 216.042 L 240 219 298.250 218.986 C 330.288 218.979, 357.537 218.695, 358.804 218.356 C 360.583 217.879, 361.038 217.142, 360.804 215.119 L 360.500 212.500 308 212.447 C 279.125 212.418, 252.012 212.549, 247.750 212.739 M 196 232.500 L 196 251 202.500 251 C 207.592 251, 209.009 250.675, 209.043 249.500 C 209.066 248.675, 209.086 241.250, 209.086 233 C 209.086 224.750, 209.066 217.100, 209.043 216 C 209.004 214.210, 208.319 214, 202.500 214 L 196 214 196 232.500 M 299.250 229.758 L 240 230.016 240 233.008 L 240 236 298.918 236 C 331.323 236, 358.548 235.727, 359.418 235.393 C 361.292 234.674, 361.549 230.371, 359.750 229.857 C 359.063 229.661, 331.837 229.616, 299.250 229.758 M 240 249 L 240 252 300.500 252 L 361 252 361 249 L 361 246 300.500 246 L 240 246 240 249 M 240.750 267.685 C 239.689 267.965, 239 269.105, 239 270.581 L 239 273.015 299.750 272.758 L 360.500 272.500 360.500 270 L 360.500 267.500 301.500 267.362 C 269.050 267.286, 241.713 267.432, 240.750 267.685 M 200.250 269.715 L 196 270.115 196 288.557 L 196 307 202.522 307 L 209.044 307 208.772 288.250 C 208.466 267.147, 209.257 268.869, 200.250 269.715 M 239.667 284.667 C 239.300 285.033, 239 286.383, 239 287.667 L 239 290 300 290 L 361 290 361 287 L 361 284 300.667 284 C 267.483 284, 240.033 284.300, 239.667 284.667 M 239.362 303.500 C 239.045 304.325, 239.046 305.679, 239.365 306.508 C 239.873 307.832, 247.265 307.984, 300.222 307.758 L 360.500 307.500 360.816 304.750 L 361.133 302 300.535 302 C 247.593 302, 239.865 302.190, 239.362 303.500 M 131 308 C 129.235 309.765, 129.002 311.321, 129.015 321.250 C 129.032 333.172, 129.250 334.043, 132.675 335.845 C 135.863 337.523, 155.590 336.199, 157.254 334.195 C 158.089 333.190, 158.500 328.920, 158.500 321.261 C 158.500 306.289, 158.214 306, 143.389 306 C 134.333 306, 132.743 306.257, 131 308 M 239.468 325.101 C 239.101 326.256, 239.210 327.610, 239.709 328.109 C 240.237 328.637, 265.427 328.908, 300.058 328.758 L 359.500 328.500 359.816 325.750 L 360.133 323 300.134 323 L 240.135 323 239.468 325.101 M 196 343.500 L 196 361 202.500 361 L 209 361 209 343.500 L 209 326 202.500 326 L 196 326 196 343.500 M 240 342 L 240 345.016 300.250 344.758 L 360.500 344.500 360.500 342 L 360.500 339.500 300.250 339.242 L 240 338.984 240 342 M 240 359 L 240 362 300.500 362 L 361 362 361 359 L 361 356 300.500 356 L 240 356 240 359" stroke="none" fill="black" fill-rule="evenodd"/>
</svg>